<svg width="28" height="22" viewBox="0 0 128 128" fill="none" xmlns="http://www.w3.org/2000/svg"><g clip-path="url(#clip0_1398_2427)"><path d="M112 0H16C7.16344 0 0 7.16344 0 16V112C0 120.837 7.16344 128 16 128H112C120.837 128 128 120.837 128 112V16C128 7.16344 120.837 0 112 0Z" fill="#E51A4D"></path><path fill-rule="evenodd" clip-rule="evenodd" d="M63.8108 22.0361C83.7565 22.0361 99.9255 38.1813 99.9255 58.097C99.9255 78.0128 83.7565 94.1578 63.8108 94.1578C58.0843 94.1578 52.653 92.8266 47.8395 90.4358L27.6965 105.668V58.097V55.78H27.7705C28.9802 36.9235 44.6554 22.0361 63.8108 22.0361Z" fill="white"></path><path fill-rule="evenodd" clip-rule="evenodd" d="M53.1716 46.8075H54.5544L66.3785 39.2897C66.5511 39.1909 66.773 39.2403 66.8717 39.3883C66.9709 39.5609 66.921 39.7828 66.773 39.8814L55.8871 46.8075H74.3515C76.2767 46.8075 77.8321 48.3605 77.8321 50.2829V63.8644C77.8321 65.7874 76.2767 67.3398 74.3515 67.3398H53.1962C51.271 67.3398 49.7156 65.7874 49.7156 63.8644V50.2829C49.6909 48.3605 51.271 46.8075 53.1716 46.8075Z" fill="#E51A4D"></path><path d="M72.4673 63.8666C73.9515 62.384 73.9515 59.9809 72.4673 58.4982C70.9823 57.0162 68.5755 57.0162 67.0913 58.4982C65.6063 59.9809 65.6063 62.384 67.0913 63.8666C68.5755 65.3492 70.9823 65.3492 72.4673 63.8666Z" fill="white"></path><path d="M61.4658 64.9981C62.4064 64.9981 63.1691 64.2366 63.1691 63.2977C63.1691 62.3582 62.4064 61.5967 61.4658 61.5967C60.5252 61.5967 59.7625 62.3582 59.7625 63.2977C59.7625 64.2366 60.5252 64.9981 61.4658 64.9981Z" fill="white"></path><path fill-rule="evenodd" clip-rule="evenodd" d="M55.8134 64.9736C56.7511 64.9736 57.5167 64.2098 57.5167 63.2733C57.5167 62.3361 56.7511 61.5723 55.8134 61.5723C54.8751 61.5723 54.1101 62.3361 54.1101 63.2733C54.1101 64.2098 54.8751 64.9736 55.8134 64.9736Z" fill="white"></path><path d="M66.0819 50.5537H53.7393V54.1771H66.0819V50.5537Z" fill="white"></path><path d="M73.4139 50.5537H67.5881V54.1771H73.4139V50.5537Z" fill="white"></path><path fill-rule="evenodd" clip-rule="evenodd" d="M76.1042 45.0085C77.9062 45.1073 79.4862 46.3638 80.0047 48.0894C80.0541 48.2867 79.9555 48.4839 79.7576 48.5333C79.5602 48.5827 79.363 48.4839 79.3136 48.2867C78.8692 46.8323 77.5857 45.7972 76.055 45.6985C75.8577 45.6985 75.7097 45.5259 75.7097 45.3292C75.7343 45.1319 75.907 44.9839 76.1042 45.0085Z" fill="#E51A4D"></path><path fill-rule="evenodd" clip-rule="evenodd" d="M76.0797 43.4551H76.7706C79.3876 43.4551 81.5101 45.5747 81.5349 48.1876C81.5349 48.3848 81.3869 48.5328 81.1896 48.5328C80.9923 48.5328 80.8438 48.3848 80.8438 48.1876C80.8438 45.9693 79.0171 44.1697 76.7954 44.1697H76.1043C75.907 44.1697 75.759 44.0223 75.759 43.8251C75.7344 43.6031 75.8823 43.4551 76.0797 43.4551Z" fill="#E51A4D"></path><path fill-rule="evenodd" clip-rule="evenodd" d="M76.0797 41.8281H76.598C80.054 41.8281 82.8929 44.663 82.8929 48.1136V48.1876C82.8929 48.385 82.745 48.5329 82.5471 48.5329C82.3498 48.5329 82.2019 48.385 82.2019 48.1876V48.1136C82.2019 45.0575 79.6835 42.5434 76.6227 42.5434H76.1043C75.907 42.5434 75.759 42.3954 75.759 42.1981C75.7344 41.9761 75.8823 41.8281 76.0797 41.8281Z" fill="#E51A4D"></path></g><defs><clipPath id="clip0_1398_2427"><rect width="128" height="128" fill="white"></rect></clipPath></defs></svg>