<svg width="34" height="34" viewBox="0 0 34 34" fill="none" xmlns="http://www.w3.org/2000/svg"><path opacity="0.2" d="M0 5.473A4.854 4.854 0 0 1 4.853.618H28.21a4.854 4.854 0 0 1 4.853 4.855v23.361a4.854 4.854 0 0 1-4.853 4.855H4.853A4.854 4.854 0 0 1 0 28.834z" fill="#fff"></path><path fill-rule="evenodd" clip-rule="evenodd" d="M16.482 6.311c5.152 0 9.329 4.172 9.329 9.317s-4.177 9.317-9.329 9.317a9.25 9.25 0 0 1-4.125-.962L7.154 27.92V15.03h.019a9.324 9.324 0 0 1 9.31-8.718" fill="#fff"></path><path fill-rule="evenodd" clip-rule="evenodd" d="M13.735 12.712h.357l3.054-1.943c.044-.025.102-.013.127.026.026.044.013.102-.025.127l-2.812 1.79h4.77c.497 0 .898.4.898.898v3.509a.897.897 0 0 1-.899.897h-5.464a.897.897 0 0 1-.9-.897v-3.51a.89.89 0 0 1 .894-.897" fill="#734FC2"></path><path d="M18.719 17.12a.98.98 0 0 0 0-1.388.983.983 0 0 0-1.39 0 .983.983 0 0 0 1.389 1.387m-2.842.293a.44.44 0 1 0 0-.88.44.44 0 0 0 0 .88" fill="#fff"></path><path fill-rule="evenodd" clip-rule="evenodd" d="M14.417 17.405a.44.44 0 0 0 0-.879.44.44 0 0 0 0 .879" fill="#fff"></path><path d="M17.07 13.68h-3.19v.936h3.188zm1.892 0h-1.504v.936h1.504z" fill="#fff"></path><path fill-rule="evenodd" clip-rule="evenodd" d="M19.658 12.247c.465.025.874.35 1.007.796.013.05-.012.102-.063.115-.051.012-.102-.013-.115-.064a.94.94 0 0 0-.842-.669c-.05 0-.089-.045-.089-.095a.093.093 0 0 1 .102-.083" fill="#734FC2"></path><path fill-rule="evenodd" clip-rule="evenodd" d="M19.652 11.846h.178c.676 0 1.224.547 1.23 1.222 0 .051-.037.09-.088.09a.087.087 0 0 1-.09-.09c0-.573-.472-1.038-1.046-1.038h-.178a.087.087 0 0 1-.09-.089c-.006-.057.033-.095.084-.095" fill="#734FC2"></path><path fill-rule="evenodd" clip-rule="evenodd" d="M19.652 11.425h.133c.893 0 1.627.732 1.627 1.624v.02c0 .05-.039.088-.09.088a.087.087 0 0 1-.089-.089v-.019c0-.79-.65-1.44-1.441-1.44h-.134a.087.087 0 0 1-.09-.088c-.006-.058.033-.096.084-.096" fill="#734FC2"></path></svg>